PathFileType	4	(X/Y/Z)	C:\Users\86182\Documents\cortex\Trimmed_M3_L12.trc
DataRate	CameraRate	NumFrames	NumMarkers	Units	OrigDataRate	OrigDataStartFrame	OrigNumFrames
100.00	100.00	       98	2	mm	100.00	721	       901
Frame#	Time	gripper			box			
		X1	Y1	Z1	X2	Y2	Z2	

721	7.200	273.50128	149.79887	292.83777	275.05573	147.69926	157.10532	
722	7.210	273.48007	149.79985	292.85037	275.05484	147.70506	157.10962	
723	7.220	273.53952	149.79082	292.82449	275.00800	147.67029	157.10507	
724	7.230	273.45502	149.79839	292.86917	274.98755	147.67845	157.12010	
725	7.240	273.47183	149.79813	292.85840	274.99860	147.70015	157.12856	
726	7.250	273.43158	149.79532	292.86124	274.95691	147.68082	157.13757	
727	7.260	273.48779	149.79550	292.85178	274.98044	147.68755	157.12494	
728	7.270	273.45966	149.80505	292.85608	274.96970	147.70036	157.13820	
729	7.280	273.47983	149.80096	292.84888	275.02469	147.71681	157.13274	
730	7.290	273.48404	149.79982	292.84308	275.02832	147.70392	157.11909	
731	7.300	273.48907	149.80252	292.84039	275.04544	147.69498	157.10704	
732	7.310	273.49557	149.80238	292.83627	275.06555	147.70308	157.10951	
733	7.320	273.50732	149.80557	292.82373	275.15012	147.69795	157.07210	
734	7.330	273.48505	149.80463	292.83990	275.09473	147.70262	157.10014	
735	7.340	273.53183	149.79926	292.81699	275.10864	147.68030	157.07458	
736	7.350	273.52005	149.79724	292.82779	275.10556	147.70398	157.09619	
737	7.360	273.48685	149.80347	292.84048	275.04456	147.69870	157.11368	
738	7.370	273.51120	149.79698	292.83405	275.01505	147.69928	157.12326	
739	7.380	273.47842	149.79222	292.86288	275.01590	147.72157	157.13857	
740	7.390	273.48959	149.79282	292.85458	275.03903	147.70230	157.11853	
741	7.400	273.45828	149.79936	292.86551	275.01929	147.69833	157.12138	
742	7.410	273.45767	149.80122	292.86316	274.99915	147.69727	157.12639	
743	7.420	273.50101	149.79210	292.84808	274.97397	147.67792	157.12009	
744	7.430	273.50995	149.79402	292.83929	275.04309	147.70436	157.11853	
745	7.440	273.48639	149.80083	292.84473	275.05963	147.69818	157.10889	
746	7.450	273.48801	149.80090	292.84354	275.10489	147.70480	157.09065	
747	7.460	273.48138	149.79945	292.83136	275.00360	147.67427	157.10365	
748	7.470	273.52341	149.79332	292.83142	275.06140	147.69168	157.10475	
749	7.480	273.47580	149.80374	292.84735	275.10941	147.69861	157.08928	
750	7.490	273.49768	149.79945	292.83929	275.04669	147.68404	157.09816	
751	7.500	273.51212	149.79565	292.83539	275.03012	147.70712	157.12442	
752	7.510	273.48438	149.79823	292.84995	275.03885	147.70006	157.11612	
753	7.520	273.45044	149.79950	292.87051	274.99164	147.69337	157.12581	
754	7.530	273.47867	149.79688	292.85574	274.97354	147.70576	157.13962	
755	7.540	273.45499	149.79756	292.87039	275.03247	147.69255	157.11362	
756	7.550	273.46634	149.79893	292.86084	274.95712	147.68170	157.12752	
757	7.560	273.46762	149.79822	292.84235	275.02774	147.69643	157.11766	
758	7.570	273.52258	149.79221	292.83365	275.01328	147.68571	157.11432	
759	7.580	273.48517	149.79150	292.85480	274.99643	147.69258	157.12338	
760	7.590	273.48026	149.80119	292.82950	275.05484	147.70506	157.10962	
761	7.600	273.49225	149.80106	292.84048	275.03049	147.68509	157.10820	
762	7.610	273.49518	149.80310	292.83548	275.02734	147.69194	157.11282	
763	7.620	273.52072	149.79703	292.82767	275.04321	147.68431	157.10025	
764	7.630	273.47897	149.80563	292.84244	275.04617	147.68164	157.10118	
765	7.640	273.51517	149.80261	292.82297	275.07285	147.71031	157.11177	
766	7.650	273.50946	149.80095	292.82925	275.03577	147.69742	157.11606	
767	7.660	273.49710	149.79298	292.84933	275.04449	147.70158	157.12068	
768	7.670	273.49329	149.79222	292.85303	274.98044	147.68755	157.12494	
769	7.680	273.47977	149.79771	292.85376	274.94971	147.67784	157.12694	
770	7.690	273.45920	149.79884	292.86569	275.02496	147.68866	157.11304	
771	7.700	273.48254	149.79352	292.85818	275.00900	147.68669	157.11621	
772	7.710	273.47150	149.80455	292.84900	274.99731	147.68376	157.11749	
773	7.720	273.49826	149.79546	292.84491	275.03186	147.70361	157.11697	
774	7.730	273.50549	149.79347	292.84305	275.07956	147.69473	157.09897	
775	7.740	273.45892	149.80367	292.85867	275.04236	147.70717	157.12099	
776	7.750	273.51413	149.79581	292.83383	275.08844	147.70781	157.10376	
777	7.760	273.48297	149.79472	292.83740	275.05212	147.68666	157.09145	
778	7.770	273.50977	149.79984	292.83072	275.10135	147.68288	157.07675	
779	7.780	273.50296	149.80347	292.82977	275.08249	147.70575	157.09991	
780	7.790	273.52420	149.80255	292.81708	275.06894	147.69560	157.10535	
781	7.800	273.50436	149.80064	292.83307	275.03247	147.69255	157.11362	
782	7.810	273.50345	149.80196	292.83173	275.03061	147.69679	157.11526	
783	7.820	273.50897	149.79631	292.83652	275.01456	147.70218	157.12541	
784	7.830	273.50082	149.79961	292.83698	275.02557	147.68576	157.11084	
785	7.840	273.50369	149.79123	292.84763	274.99255	147.68758	157.12152	
786	7.850	273.46341	149.80093	292.85977	274.93820	147.69977	157.14549	
787	7.860	273.48483	149.79256	292.85815	274.97668	147.68559	157.12465	
788	7.870	273.50049	149.79355	292.84628	275.01968	147.67319	157.10376	
789	7.880	273.47824	149.79843	292.85370	275.03186	147.70361	157.11697	
790	7.890	273.51868	149.79848	292.82684	275.05566	147.70140	157.11316	
791	7.900	273.53439	149.79427	292.82272	275.07632	147.68343	157.09348	
792	7.910	273.52576	149.80183	292.81711	275.03973	147.71722	157.12694	
793	7.920	273.52856	149.79858	292.82010	275.15369	147.68724	157.06116	
794	7.930	273.53433	149.79509	292.82153	275.12500	147.69637	157.07587	
795	7.940	273.49472	149.80209	292.83731	275.07993	147.68013	157.08453	
796	7.950	273.51205	149.79810	292.83182	275.11749	147.69452	157.07806	
797	7.960	273.49841	149.79761	292.84158	275.07138	147.69469	157.09961	
798	7.970	273.49893	149.79277	292.84848	275.04205	147.68483	157.10550	
799	7.980	273.47665	149.80081	292.85120	275.03305	147.68967	157.11142	
800	7.990	273.48981	149.79633	292.83981	274.97733	147.70773	157.13991	
801	8.000	273.47717	149.80426	292.84570	275.01410	147.69809	157.12526	
802	8.010	273.48413	149.80016	292.84720	275.02640	147.69774	157.11714	
803	8.020	273.45660	149.80299	292.86121	275.00049	147.70403	157.12801	
804	8.030	273.48322	149.79875	292.84055	275.07147	147.70953	157.11359	
805	8.040	273.51743	149.79269	292.83630	275.02664	147.69260	157.11256	
806	8.050	273.50385	149.80283	292.83017	275.07031	147.70259	157.10167	
807	8.060	273.50668	149.80486	292.82526	275.04849	147.70500	157.11407	
808	8.070	273.51996	149.79886	292.82544	275.13513	147.69899	157.08131	
809	8.080	273.50876	149.80196	292.82819	275.15973	147.68758	157.05658	
810	8.090	273.52890	149.79076	292.83163	275.10941	147.70610	157.09117	
811	8.100	273.52527	149.79887	292.82187	275.13254	147.69102	157.07155	
812	8.110	273.51550	149.79993	292.82678	275.11713	147.69122	157.07689	
813	8.120	273.50952	149.79393	292.83969	275.11740	147.69016	157.07790	
814	8.130	273.52853	149.79283	292.82874	275.14258	147.67912	157.06261	
815	8.140	273.52280	149.79196	292.82916	275.01633	147.68396	157.10410	
816	8.150	273.50815	149.79343	292.84137	275.00333	147.69633	157.12454	
817	8.160	273.49118	149.79440	292.85117	275.06451	147.70050	157.09785	
818	8.170	273.50165	149.79449	292.84409	275.03351	147.68674	157.10925	
